<?xml version="1.0" encoding="UTF-8" standalone="no"?>
<!-- Created with Inkscape (http://www.inkscape.org/) -->

<svg
   width="57.788712mm"
   height="56.618252mm"
   viewBox="0 0 57.788712 56.618252"
   version="1.1"
   id="svg1"
   xmlns:xlink="http://www.w3.org/1999/xlink"
   xmlns="http://www.w3.org/2000/svg"
   xmlns:svg="http://www.w3.org/2000/svg">
  <defs
     id="defs1">
    <linearGradient
       id="linearGradient1">
      <stop
         style="stop-color:#f9c80e;stop-opacity:1;"
         offset="0"
         id="stop1" />
      <stop
         style="stop-color:#ff6c11;stop-opacity:1;"
         offset="0.46314538"
         id="stop3" />
      <stop
         style="stop-color:#c83643;stop-opacity:1;"
         offset="0.80639154"
         id="stop4" />
      <stop
         style="stop-color:#920075;stop-opacity:1;"
         offset="1"
         id="stop2" />
    </linearGradient>
    <linearGradient
       xlink:href="#linearGradient1"
       id="linearGradient2"
       x1="44.894131"
       y1="92.494431"
       x2="101.51236"
       y2="92.494431"
       gradientUnits="userSpaceOnUse"
       gradientTransform="translate(19.291183,-165.69768)" />
  </defs>
  <g
     id="layer1"
     transform="translate(-44.308923,-64.185232)">
    <path
       id="path1"
       style="fill:url(#linearGradient2);stroke-width:0.264583"
       d="m 64.185229,-73.203284 a 28.309116,28.894407 0 0 0 28.309384,28.894361 28.309116,28.894407 0 0 0 2.505273,-0.182935 v -57.422852 a 28.309116,28.894407 0 0 0 -2.505273,-0.18293 28.309116,28.894407 0 0 0 -28.309384,28.894356 z m 31.614608,28.653032 a 28.309116,28.894407 0 0 0 2.200383,-0.430982 v -56.444096 a 28.309116,28.894407 0 0 0 -2.200383,-0.43099 z m 3.000334,-0.587561 a 28.309116,28.894407 0 0 0 2.199869,-0.692465 v -54.746012 a 28.309116,28.894407 0 0 0 -2.199869,-0.69246 z m 3.300059,-1.038697 a 28.309116,28.894407 0 0 0 1.89962,-0.851627 V -99.37843 a 28.309116,28.894407 0 0 0 -1.89962,-0.85163 z m 2.99981,-1.34462 a 28.309116,28.894407 0 0 0 1.90015,-1.137399 v -49.08951 a 28.309116,28.894407 0 0 0 -1.90015,-1.137398 z m 3.30006,-1.975074 A 28.309116,28.894407 0 0 0 110,-50.778296 v -44.849975 a 28.309116,28.894407 0 0 0 -1.5999,-1.282093 z m 2.99982,-2.404504 a 28.309116,28.894407 0 0 0 1.5999,-1.683618 v -39.237915 a 28.309116,28.894407 0 0 0 -1.5999,-1.683618 z m 3.30006,-3.66696 a 28.309116,28.894407 0 0 0 1.30017,-1.926497 v -31.418237 a 28.309116,28.894407 0 0 0 -1.30017,-1.926498 z m 2.99981,-4.905127 a 28.309116,28.894407 0 0 0 3.10369,-12.730489 28.309116,28.894407 0 0 0 -3.10369,-12.730489 z"
       transform="rotate(90)" />
  </g>
</svg>
